<svg xmlns="http://www.w3.org/2000/svg" viewBox="0 0 100 100" width="100" height="100" role="img">
  <g stroke="currentColor" fill="none" stroke-width="6" stroke-linecap="round" stroke-linejoin="round">
  <path d="M60,20 A30,30 0 1 0 60,80 A22,22 0 1 1 60,20" />
  <path d="M20,25 l6,0 l2,-6 l2,6 l6,0 l-5,4 l2,6 l-5,-3 l-5,3 l2,-6 z" />
  <path d="M18,55 l6,0 l2,-6 l2,6 l6,0 l-5,4 l2,6 l-5,-3 l-5,3 l2,-6 z" />
  <path d="M30,78 l6,0 l2,-6 l2,6 l6,0 l-5,4 l2,6 l-5,-3 l-5,3 l2,-6 z" />
  </g>
</svg>